HIERARCHY
ROOT Hips
{
	OFFSET 0.00000 0.00000 0.00000
	CHANNELS 6 Xposition Yposition Zposition Zrotation Yrotation Xrotation 
	JOINT LHipJoint
	{
		OFFSET 0 0 0
		CHANNELS 3 Zrotation Yrotation Xrotation
		JOINT LeftHip
		{
			OFFSET 1.67711 -1.75950 0.70433
			CHANNELS 3 Zrotation Yrotation Xrotation
			JOINT LeftKnee
			{
				OFFSET 2.44937 -6.72958 0.00000
				CHANNELS 3 Zrotation Yrotation Xrotation
				JOINT LeftAnkle
				{
					OFFSET 2.61292 -7.17894 0.00000
					CHANNELS 3 Zrotation Yrotation Xrotation
					JOINT LeftToe
					{
						OFFSET 0.17811 -0.48914 1.82515
						CHANNELS 3 Zrotation Yrotation Xrotation
						End Site
						{
							OFFSET -0.00112 -0.00292 0.95564
						}
					}
				}
			}
		}
	}
	JOINT RHipJoint
	{
		OFFSET 0 0 0
		CHANNELS 3 Zrotation Yrotation Xrotation
		JOINT RightHip
		{
			OFFSET -1.61866 -1.75949 0.70433
			CHANNELS 3 Zrotation Yrotation Xrotation
			JOINT RightKnee
			{
				OFFSET -2.36243 -6.49072 0.00000
				CHANNELS 3 Zrotation Yrotation Xrotation
				JOINT RightAnkle
				{
					OFFSET -2.64336 -7.26259 0.00000
					CHANNELS 3 Zrotation Yrotation Xrotation
					JOINT RightToe
					{
						OFFSET -0.18169 -0.49935 1.90192
						CHANNELS 3 Zrotation Yrotation Xrotation
						End Site
						{
							OFFSET 0.00039 0.00229 0.99264
						}
					}
				}
			}
		}
	}
	JOINT lowerback
	{
		OFFSET 0 0 0
		CHANNELS 3 Zrotation Yrotation Xrotation
		JOINT Chest
		{
			OFFSET -0.01926 2.19655 -0.12599
			CHANNELS 3 Zrotation Yrotation Xrotation
			JOINT Chest2
			{
				OFFSET 0.01663 2.20532 -0.00079
				CHANNELS 3 Zrotation Yrotation Xrotation
				JOINT lowerneck
				{
					OFFSET 0 0 0
					CHANNELS 3 Zrotation Yrotation Xrotation
					JOINT Neck
					{
						OFFSET 0.10604 1.75174 0.14226
						CHANNELS 3 Zrotation Yrotation Xrotation
						JOINT Head
						{
							OFFSET -0.09898 1.68516 -0.48414
							CHANNELS 3 Zrotation Yrotation Xrotation
							End Site
							{
								OFFSET -0.02896 1.78316 -0.18415
							}
						}
					}
				}
				JOINT LeftCollar
				{
					OFFSET 0 0 0
					CHANNELS 3 Zrotation Yrotation Xrotation
					JOINT LeftShoulder
					{
						OFFSET 3.30655 1.16959 -0.30867
CHANNELS 3 Zrotation Xrotation Yrotation
						JOINT LeftElbow
						{
OFFSET 0 -5.352890 -0.000000
CHANNELS 3 Zrotation Xrotation Yrotation
							JOINT LeftWrist
							{
OFFSET 0 -3.277270 -0.000000
CHANNELS 3 Zrotation Xrotation Yrotation
								JOINT lhand
								{
									OFFSET 0 0 0
CHANNELS 3 Zrotation Xrotation Yrotation
									JOINT LFingers
									{
OFFSET 0 -0.544430 0.000090
CHANNELS 3 Zrotation Xrotation Yrotation
										End Site
										{
OFFSET 0 -0.438910 -0.000000
										}
									}
								}
								JOINT LThumb
								{
OFFSET 0 0.000000 0.000000
CHANNELS 3 Zrotation Xrotation Yrotation
									End Site
									{
OFFSET 0 -0.445640 0.445700
									}
								}
							}
						}
					}
				}
				JOINT RightCollar
				{
					OFFSET 0 0 0
					CHANNELS 3 Zrotation Yrotation Xrotation
					JOINT RightShoulder
					{
						OFFSET -3.27172 0.97864 -0.36131
CHANNELS 3 Zrotation Xrotation Yrotation
						JOINT RightElbow
						{
OFFSET 0 -5.520760 -0.005900
CHANNELS 3 Zrotation Xrotation Yrotation
							JOINT RightWrist
							{
OFFSET 0 -3.323640 -0.000000
CHANNELS 3 Zrotation Xrotation Yrotation
								JOINT rhand
								{
									OFFSET 0 0 0
CHANNELS 3 Zrotation Xrotation Yrotation
									JOINT RFingers
									{
OFFSET 0 -0.732230 -0.000000
CHANNELS 3 Zrotation Xrotation Yrotation
										End Site
										{
OFFSET 0 -0.590350 -0.000000
										}
									}
								}
								JOINT RThumb
								{
OFFSET 0 0.000000 0.000000
CHANNELS 3 Zrotation Xrotation Yrotation
									End Site
									{
OFFSET 0 -0.599360 0.599360
									}
								}
							}
						}
					}
				}
			}
		}
	}
}
MOTION
Frames: 9
Frame Time: 0.008333333333333333
-5.748900 19.447900 -24.448800 2.043300 -7.220100 3.045500 0.000000 0.000000 0.000000 -22.103500 -3.667500 -18.540100 14.299600 19.202400 73.117500 1.414200 -2.164100 23.338400 1.419900 -7.535800 -21.312700 0.000000 0.000000 0.000000 16.751400 10.502900 -25.266400 -5.225800 -13.633600 41.789200 -1.308700 0.451000 -21.495000 -0.568900 4.830400 -13.425500 20.416700 -6.871300 -8.543400 -9.837700 -11.463500 6.433000 -24.003800 -4.535800 5.704600 11.489200 21.463400 -2.513800 -11.308700 30.027800 13.568800 -2.153300 14.355200 8.026600 0.000000 0.000000 0.000000 13.486800 17.741600 4.764900 16.634000 -26.372800 3.923400 22.969300 4.397100 -31.350700 0.000000 0.000000 0.000000 -7.125000 0.000000 0.000000 -10.772100 63.158300 4.776100 0.000000 0.000000 0.000000 8.953400 -5.535100 45.732100 -13.034000 -21.337000 -2.465600 -17.587600 -2.942700 -18.580900 0.000000 0.000000 0.000000 7.125000 0.000000 -0.000000 6.877200 10.663800 5.526900
-6.130720 19.533510 -23.687863 1.426511 -4.829356 3.996903 0.000000 0.000000 0.000000 -20.515914 -1.275036 -32.733752 18.716695 19.960081 86.245492 0.218088 -9.498907 16.758253 0.949926 -6.200521 -17.369479 0.000000 0.000000 0.000000 19.073736 9.792336 -21.787326 -4.919622 -13.292670 40.474348 -1.543707 -0.777963 -23.787379 -0.397408 4.047418 -11.210088 22.509014 -6.339379 -9.366742 -10.023922 -11.172573 5.833325 -25.629941 -4.410480 5.285096 11.141048 20.914985 -2.001533 -9.237624 29.013005 14.072917 -1.785434 14.012262 7.612122 0.000000 0.000000 0.000000 12.890546 20.283174 4.841145 16.146701 -25.719105 3.709423 10.025170 1.319175 -29.993390 0.000000 0.000000 0.000000 -7.125000 0.000000 0.000000 -23.844204 58.730409 8.301463 0.000000 0.000000 0.000000 11.258246 -6.548017 48.962443 -14.037496 -22.787943 -2.842842 -18.977978 -1.518507 -18.282149 0.000000 0.000000 0.000000 7.125000 0.000000 0.000000 5.953251 10.802841 4.757839
-6.403417 19.663922 -22.971830 -0.278148 -3.121278 4.226607 0.000000 0.000000 0.000000 -19.958439 0.430206 -45.363409 20.410496 19.995953 91.200371 -0.327930 -10.186288 5.129539 0.956116 -6.183233 -17.330222 0.000000 0.000000 0.000000 22.559239 7.615857 -17.131859 -4.142347 -12.347219 36.971985 -1.779658 -1.723369 -25.884423 -0.735063 5.471816 -15.260591 25.675651 -6.021432 -8.176014 -9.935311 -10.861051 5.261939 -27.096820 -4.478672 3.657326 10.505960 20.524928 -2.914193 -7.850814 28.430845 16.083336 -1.250405 13.693031 8.066441 0.000000 0.000000 0.000000 10.362699 22.156918 6.828544 17.556507 -27.585582 4.341913 10.531990 1.276118 -31.027864 0.000000 0.000000 0.000000 -7.125000 0.000000 0.000000 -24.157282 59.780075 9.033964 0.000000 0.000000 0.000000 11.610735 -5.787458 55.482837 -17.277649 -27.220957 -4.214344 -19.583821 -5.532245 -14.802266 0.000000 0.000000 0.000000 7.125000 0.000000 0.000000 5.389515 14.361165 3.901858
-6.582906 19.735908 -22.282077 -1.129443 -2.138690 3.716213 0.000000 0.000000 0.000000 -20.237517 -0.909510 -53.024382 19.009649 19.975514 87.103072 -0.340287 -11.504044 -1.299648 0.456317 -4.328529 -12.003442 0.000000 0.000000 0.000000 24.682225 5.091162 -12.460754 -3.430153 -11.360420 33.505797 -1.727767 -1.665823 -25.491358 -0.292941 3.473896 -9.601767 26.743646 -6.280416 -5.950232 -9.509379 -10.764823 5.470391 -26.670166 -4.556474 2.598203 9.962252 20.189402 -4.446866 -8.526009 28.169978 17.038046 -1.209069 13.384642 8.648909 0.000000 0.000000 0.000000 6.730247 20.264727 10.336145 16.980325 -26.831426 4.078674 14.131085 -0.291778 -28.873568 0.000000 0.000000 0.000000 -7.125000 0.000000 0.000000 -18.786457 58.604236 6.392819 0.000000 0.000000 0.000000 10.978457 -7.843957 60.414355 -20.404715 -31.126569 -5.739182 -18.746504 -8.873988 -12.663193 0.000000 0.000000 0.000000 7.125000 0.000000 0.000000 5.900701 16.677258 3.980431
-6.711051 19.821074 -21.558377 -1.334443 -0.882213 3.020362 0.000000 0.000000 0.000000 -20.198322 -4.622480 -54.614601 13.943432 19.092401 72.027951 -0.580272 -14.866676 -1.530941 0.419373 -4.156185 -11.516566 0.000000 0.000000 0.000000 25.764984 1.883161 -7.087091 -2.562716 -9.950243 28.816366 -1.666096 -1.907387 -25.142018 -0.228492 3.076581 -8.492077 26.355417 -6.557657 -4.473677 -9.140132 -10.774863 6.348166 -25.714729 -4.412899 2.859516 9.826738 19.702995 -4.730935 -9.261337 27.577162 16.576927 -1.486504 13.052297 8.578823 0.000000 0.000000 0.000000 4.858528 17.496613 8.336073 16.681914 -26.436478 3.944716 12.154689 -0.835624 -28.708467 0.000000 0.000000 0.000000 -7.125000 0.000000 0.000000 -20.722274 58.014007 6.797457 0.000000 0.000000 0.000000 11.147828 -11.358313 62.068849 -21.525330 -32.436352 -6.329394 -18.055425 -10.045182 -13.306735 0.000000 0.000000 0.000000 7.125000 0.000000 0.000000 6.390612 16.067564 4.400146
-6.821607 19.882830 -20.762099 -1.317071 -0.698628 3.542956 0.000000 0.000000 0.000000 -18.569634 -9.200935 -52.148128 8.082889 16.175483 52.853535 -0.546133 -14.769347 -2.158152 0.130687 -2.324940 -6.404660 0.000000 0.000000 0.000000 26.152814 -0.695557 -2.622271 -1.795339 -8.425497 24.014391 -1.564205 -2.500490 -24.641527 -0.435598 4.234834 -11.738369 24.883423 -6.116065 -4.037073 -8.553548 -9.959112 6.778001 -24.176525 -3.807257 3.899764 10.287981 19.138061 -4.685966 -9.763408 26.864308 16.730613 -1.784219 12.700565 8.694523 0.000000 0.000000 0.000000 5.017103 15.851359 1.357522 17.876491 -27.998304 4.491394 4.044794 0.783806 -28.504862 0.000000 0.000000 0.000000 -7.125000 0.000000 0.000000 -28.635782 56.146537 8.309419 0.000000 0.000000 0.000000 11.754764 -14.200923 61.068332 -21.414634 -32.309123 -6.270091 -16.911165 -9.115253 -13.871530 0.000000 0.000000 0.000000 7.125000 0.000000 0.000000 7.185973 15.583323 5.031115
-6.905360 19.941207 -19.928866 -2.202344 -3.773681 5.896835 0.000000 0.000000 0.000000 -13.540305 -12.949668 -50.507955 4.407969 12.682774 38.194751 0.151065 -7.533526 -8.133846 0.446681 -4.278657 -11.863432 0.000000 0.000000 0.000000 26.699722 -1.075997 0.582015 -1.117263 -6.713963 18.870960 -1.216333 -1.805221 -21.557459 -0.612790 5.001371 -13.914219 23.464678 -4.505233 -3.282138 -7.474921 -7.406271 6.011669 -22.028554 -2.550646 4.397996 11.016115 18.406907 -4.895796 -10.990146 26.155692 17.700305 -2.273720 12.257020 9.276015 0.000000 0.000000 0.000000 5.798672 14.933361 -3.534402 20.328482 -31.036077 5.699715 3.178504 0.245483 -29.618329 0.000000 0.000000 0.000000 -7.125000 0.000000 0.000000 -30.344795 56.932321 9.471230 0.000000 0.000000 0.000000 11.223184 -15.243556 59.187403 -21.881374 -32.841963 -6.521697 -15.078816 -6.970317 -9.279106 0.000000 0.000000 0.000000 7.125000 0.000000 0.000000 8.489979 20.424389 5.048545
-6.968143 19.954842 -18.989482 -3.626474 -8.812478 8.096661 0.000000 0.000000 0.000000 -9.185360 -12.901605 -49.850493 3.259360 11.103550 32.629977 0.250339 -6.680433 -9.405313 0.570756 -4.835393 -13.440355 0.000000 0.000000 0.000000 26.906600 -0.381608 4.160198 -0.700619 -5.349222 14.907611 -0.787563 -1.344951 -17.302313 -0.940154 6.171420 -17.283964 21.589731 -2.319463 -1.719975 -6.580488 -3.948691 5.648332 -19.779601 -0.805661 5.123794 11.473814 17.679954 -6.106255 -12.362321 25.377676 18.140531 -2.745902 11.725720 9.821519 0.000000 0.000000 0.000000 7.780151 12.578385 -6.513311 21.117986 -31.965759 6.112287 10.516662 0.530194 -26.409017 0.000000 0.000000 0.000000 -7.125000 0.000000 0.000000 -20.853691 55.536080 5.566226 0.000000 0.000000 0.000000 10.300802 -16.806910 57.254136 -21.921902 -32.888610 -6.543380 -14.963251 -5.900844 -7.264538 0.000000 0.000000 0.000000 7.125000 0.000000 0.000000 8.638739 22.488532 4.729983
-6.919240 19.999147 -17.732401 -4.126104 -13.893487 7.952262 0.000000 0.000000 0.000000 -9.058246 -11.444791 -47.043675 3.965027 12.113608 36.135174 0.194871 -4.098257 -7.925352 0.728857 -5.454305 -15.209115 0.000000 0.000000 0.000000 24.092661 -1.470257 11.636403 -0.249185 -3.211916 8.869401 -0.265849 1.898512 -9.261543 -1.327819 7.297319 -20.599166 19.765029 -0.208342 0.428715 -6.661584 -0.592384 6.108181 -18.744561 0.985576 6.060673 12.704803 16.874723 -7.334646 -13.210502 24.315725 18.990140 -3.229554 11.133480 10.500738 0.000000 0.000000 0.000000 11.273527 9.802767 -9.756766 20.895978 -31.706686 5.995192 16.406751 2.836860 -25.053943 0.000000 0.000000 0.000000 -7.125000 0.000000 0.000000 -14.162657 55.395628 3.667693 0.000000 0.000000 0.000000 9.028746 -16.555306 53.810398 -21.705168 -32.642209 -6.426112 -15.844559 -4.971783 -8.058436 0.000000 0.000000 0.000000 7.125000 0.000000 0.000000 7.972174 21.637998 4.513653
